<?xml version="1.0" encoding="utf-8"?>
<!-- Generator: Adobe Illustrator 24.2.0, SVG Export Plug-In . SVG Version: 6.00 Build 0)  -->
<svg version="1.1" id="Capa_1" xmlns="http://www.w3.org/2000/svg" xmlns:xlink="http://www.w3.org/1999/xlink" x="0px" y="0px"
	 viewBox="0 0 65.3 104.6" style="enable-background:new 0 0 65.3 104.6;" xml:space="preserve">
<style type="text/css">
	.st0{fill:#212529;}
</style>
<g>
	<circle class="st0" cx="35.2" cy="13.8" r="9.4"/>
	<path class="st0" d="M63.9,53.4c-4.4-2-13.5-4.9-16-9.2c-3.3-5.7-6.1-18.9-17.8-18.8c-5.1,0-13.3,8.4-19.2,12.2
		c-2.7,1.8-2.6,6.5-3.1,9.3C7.3,50.7,6.6,54.4,6,58.1c-0.6,3.7,2.5,5.4,5.5,3.7c1.7-0.9,2.4-3.2,2.7-4.9C15,52.4,16,49,16.7,44.5
		l5.4-4.3C21,46.6,20,51.4,19,57.3l-8.8,21.1H16c-0.3,1.8-0.7,3.2-1.2,3.8C11.5,86.5,9,90.8,5.6,95c-4.8,6.1,3.7,10.7,8.1,5.2
		c3-3.8,6-7.6,8.9-11.4c2.2-2.8,3.2-6.6,3.8-10.5h6.1c1.8,3.8,3.5,7.6,5.3,11.4c1.5,3.3,3.1,6.7,4.6,10c2.9,6.2,11.8,3,8.7-3.5
		c-4.3-9.3-7.7-18.6-12-27.8c-1.3-2.9-3.4-5.7-3-8.9c0.8-5.2,1.5-10.3,2.2-15.5c1.2,2.1,2.3,5,4,6.8c1.2,2,5.6,3.3,7.7,4.2
		c3.2,1.5,6.4,2.9,9.6,4.4C64.7,61.9,69.3,55.8,63.9,53.4z"/>
</g>
</svg>
