<?xml version="1.0" encoding="utf-8"?>
<!-- Generator: Adobe Illustrator 24.2.0, SVG Export Plug-In . SVG Version: 6.00 Build 0)  -->
<svg version="1.1" id="Capa_1" xmlns="http://www.w3.org/2000/svg" xmlns:xlink="http://www.w3.org/1999/xlink" x="0px" y="0px"
	 viewBox="0 0 100 97" style="enable-background:new 0 0 100 97;" xml:space="preserve">
<style type="text/css">
	.st0{fill:#F3A544;}
</style>
<g>
	<g>
		<path class="st0" d="M78,32h-8c-1.1,0-2-0.9-2-2v-8c0-1.1,0.9-2,2-2h8c1.1,0,2,0.9,2,2v8C80,31.1,79.1,32,78,32z M72,28h4v-4h-4
			V28z"/>
		<path class="st0" d="M80,12H20c-4.4,0-8,3.6-8,8v60c0,4.4,3.6,8,8,8h60c4.4,0,8-3.6,8-8V20C88,15.6,84.4,12,80,12z M20,16h60
			c2.2,0,4,1.8,4,4v16H67.9c-4.4-4.9-10.8-8-17.9-8c-7.1,0-13.5,3.1-17.9,8H16V20C16,17.8,17.8,16,20,16z M50,32c11,0,20,9,20,20
			s-9,20-20,20s-20-9-20-20S39,32,50,32z M80,84H20c-2.2,0-4-1.8-4-4V40h13.2c-2,3.5-3.2,7.6-3.2,12c0,13.2,10.8,24,24,24
			c13.2,0,24-10.8,24-24c0-4.4-1.2-8.5-3.2-12H84v40C84,82.2,82.2,84,80,84z"/>
		<path class="st0" d="M50,68c-8.8,0-16-7.2-16-16s7.2-16,16-16s16,7.2,16,16S58.8,68,50,68z M50,40c-6.6,0-12,5.4-12,12
			s5.4,12,12,12s12-5.4,12-12S56.6,40,50,40z"/>
	</g>
</g>
</svg>
